<mxfile host="app.diagrams.net" modified="2023-12-21T14:43:17.578Z" agent="Mozilla/5.0 (Windows NT 10.0; Win64; x64) AppleWebKit/537.36 (KHTML, like Gecko) Chrome/120.0.0.0 Safari/537.36" etag="pYy-A_yc2yjfb5nrBLlV" version="22.1.11" type="device">
  <diagram name="Страница — 1" id="0ntbZASs5YwwCJ2Y_SW_">
    <mxGraphModel dx="1539" dy="736" grid="1" gridSize="10" guides="1" tooltips="1" connect="1" arrows="1" fold="1" page="1" pageScale="1" pageWidth="827" pageHeight="1169" math="0" shadow="0">
      <root>
        <mxCell id="0" />
        <mxCell id="1" parent="0" />
        <mxCell id="jlyRW384jzeri63i-alh-6" style="edgeStyle=orthogonalEdgeStyle;rounded=0;orthogonalLoop=1;jettySize=auto;html=1;exitX=0.5;exitY=1;exitDx=0;exitDy=0;" edge="1" parent="1" source="jlyRW384jzeri63i-alh-1" target="jlyRW384jzeri63i-alh-2">
          <mxGeometry relative="1" as="geometry" />
        </mxCell>
        <mxCell id="jlyRW384jzeri63i-alh-7" style="edgeStyle=orthogonalEdgeStyle;rounded=0;orthogonalLoop=1;jettySize=auto;html=1;entryX=0.5;entryY=0;entryDx=0;entryDy=0;exitX=0.5;exitY=1;exitDx=0;exitDy=0;" edge="1" parent="1" source="jlyRW384jzeri63i-alh-1" target="jlyRW384jzeri63i-alh-3">
          <mxGeometry relative="1" as="geometry" />
        </mxCell>
        <mxCell id="jlyRW384jzeri63i-alh-8" style="edgeStyle=orthogonalEdgeStyle;rounded=0;orthogonalLoop=1;jettySize=auto;html=1;" edge="1" parent="1" source="jlyRW384jzeri63i-alh-1" target="jlyRW384jzeri63i-alh-4">
          <mxGeometry relative="1" as="geometry" />
        </mxCell>
        <mxCell id="jlyRW384jzeri63i-alh-10" style="edgeStyle=orthogonalEdgeStyle;rounded=0;orthogonalLoop=1;jettySize=auto;html=1;entryX=0.5;entryY=0;entryDx=0;entryDy=0;exitX=0.5;exitY=1;exitDx=0;exitDy=0;" edge="1" parent="1" source="jlyRW384jzeri63i-alh-1" target="jlyRW384jzeri63i-alh-5">
          <mxGeometry relative="1" as="geometry" />
        </mxCell>
        <mxCell id="jlyRW384jzeri63i-alh-12" style="edgeStyle=orthogonalEdgeStyle;rounded=0;orthogonalLoop=1;jettySize=auto;html=1;entryX=0.5;entryY=0;entryDx=0;entryDy=0;exitX=0.5;exitY=1;exitDx=0;exitDy=0;" edge="1" parent="1" source="jlyRW384jzeri63i-alh-1" target="jlyRW384jzeri63i-alh-11">
          <mxGeometry relative="1" as="geometry" />
        </mxCell>
        <mxCell id="jlyRW384jzeri63i-alh-1" value="Розробка проекту" style="rounded=0;whiteSpace=wrap;html=1;" vertex="1" parent="1">
          <mxGeometry x="330" y="40" width="120" height="60" as="geometry" />
        </mxCell>
        <mxCell id="jlyRW384jzeri63i-alh-48" style="edgeStyle=orthogonalEdgeStyle;rounded=0;orthogonalLoop=1;jettySize=auto;html=1;entryX=0;entryY=0.5;entryDx=0;entryDy=0;exitX=0;exitY=0.5;exitDx=0;exitDy=0;" edge="1" parent="1" source="jlyRW384jzeri63i-alh-2" target="jlyRW384jzeri63i-alh-13">
          <mxGeometry relative="1" as="geometry" />
        </mxCell>
        <mxCell id="jlyRW384jzeri63i-alh-49" style="edgeStyle=orthogonalEdgeStyle;rounded=0;orthogonalLoop=1;jettySize=auto;html=1;entryX=0;entryY=0.5;entryDx=0;entryDy=0;exitX=0;exitY=0.5;exitDx=0;exitDy=0;" edge="1" parent="1" source="jlyRW384jzeri63i-alh-2" target="jlyRW384jzeri63i-alh-14">
          <mxGeometry relative="1" as="geometry" />
        </mxCell>
        <mxCell id="jlyRW384jzeri63i-alh-51" style="edgeStyle=orthogonalEdgeStyle;rounded=0;orthogonalLoop=1;jettySize=auto;html=1;entryX=0;entryY=0.5;entryDx=0;entryDy=0;exitX=0;exitY=0.5;exitDx=0;exitDy=0;" edge="1" parent="1" source="jlyRW384jzeri63i-alh-2" target="jlyRW384jzeri63i-alh-15">
          <mxGeometry relative="1" as="geometry" />
        </mxCell>
        <mxCell id="jlyRW384jzeri63i-alh-2" value="Аналіз та визначення вимог проекту" style="rounded=0;whiteSpace=wrap;html=1;" vertex="1" parent="1">
          <mxGeometry x="-30" y="150" width="120" height="60" as="geometry" />
        </mxCell>
        <mxCell id="jlyRW384jzeri63i-alh-52" style="edgeStyle=orthogonalEdgeStyle;rounded=0;orthogonalLoop=1;jettySize=auto;html=1;entryX=0;entryY=0.5;entryDx=0;entryDy=0;exitX=0;exitY=0.5;exitDx=0;exitDy=0;" edge="1" parent="1" source="jlyRW384jzeri63i-alh-3" target="jlyRW384jzeri63i-alh-17">
          <mxGeometry relative="1" as="geometry" />
        </mxCell>
        <mxCell id="jlyRW384jzeri63i-alh-53" style="edgeStyle=orthogonalEdgeStyle;rounded=0;orthogonalLoop=1;jettySize=auto;html=1;entryX=0;entryY=0.5;entryDx=0;entryDy=0;exitX=0;exitY=0.5;exitDx=0;exitDy=0;" edge="1" parent="1" source="jlyRW384jzeri63i-alh-3" target="jlyRW384jzeri63i-alh-18">
          <mxGeometry relative="1" as="geometry" />
        </mxCell>
        <mxCell id="jlyRW384jzeri63i-alh-54" style="edgeStyle=orthogonalEdgeStyle;rounded=0;orthogonalLoop=1;jettySize=auto;html=1;entryX=0;entryY=0.5;entryDx=0;entryDy=0;exitX=0;exitY=0.5;exitDx=0;exitDy=0;" edge="1" parent="1" source="jlyRW384jzeri63i-alh-3" target="jlyRW384jzeri63i-alh-19">
          <mxGeometry relative="1" as="geometry" />
        </mxCell>
        <mxCell id="jlyRW384jzeri63i-alh-3" value="Проектування проекту" style="rounded=0;whiteSpace=wrap;html=1;" vertex="1" parent="1">
          <mxGeometry x="150" y="150" width="120" height="60" as="geometry" />
        </mxCell>
        <mxCell id="jlyRW384jzeri63i-alh-55" style="edgeStyle=orthogonalEdgeStyle;rounded=0;orthogonalLoop=1;jettySize=auto;html=1;entryX=0;entryY=0.5;entryDx=0;entryDy=0;exitX=0;exitY=0.5;exitDx=0;exitDy=0;" edge="1" parent="1" source="jlyRW384jzeri63i-alh-4" target="jlyRW384jzeri63i-alh-35">
          <mxGeometry relative="1" as="geometry" />
        </mxCell>
        <mxCell id="jlyRW384jzeri63i-alh-56" style="edgeStyle=orthogonalEdgeStyle;rounded=0;orthogonalLoop=1;jettySize=auto;html=1;entryX=0;entryY=0.5;entryDx=0;entryDy=0;exitX=0;exitY=0.5;exitDx=0;exitDy=0;" edge="1" parent="1" source="jlyRW384jzeri63i-alh-4" target="jlyRW384jzeri63i-alh-47">
          <mxGeometry relative="1" as="geometry" />
        </mxCell>
        <mxCell id="jlyRW384jzeri63i-alh-57" style="edgeStyle=orthogonalEdgeStyle;rounded=0;orthogonalLoop=1;jettySize=auto;html=1;entryX=0;entryY=0.5;entryDx=0;entryDy=0;exitX=0;exitY=0.5;exitDx=0;exitDy=0;" edge="1" parent="1" source="jlyRW384jzeri63i-alh-4" target="jlyRW384jzeri63i-alh-36">
          <mxGeometry relative="1" as="geometry" />
        </mxCell>
        <mxCell id="jlyRW384jzeri63i-alh-58" style="edgeStyle=orthogonalEdgeStyle;rounded=0;orthogonalLoop=1;jettySize=auto;html=1;entryX=0;entryY=0.5;entryDx=0;entryDy=0;exitX=0;exitY=0.5;exitDx=0;exitDy=0;" edge="1" parent="1" source="jlyRW384jzeri63i-alh-4" target="jlyRW384jzeri63i-alh-37">
          <mxGeometry relative="1" as="geometry" />
        </mxCell>
        <mxCell id="jlyRW384jzeri63i-alh-4" value="Розробка" style="rounded=0;whiteSpace=wrap;html=1;" vertex="1" parent="1">
          <mxGeometry x="330" y="150" width="120" height="60" as="geometry" />
        </mxCell>
        <mxCell id="jlyRW384jzeri63i-alh-60" style="edgeStyle=orthogonalEdgeStyle;rounded=0;orthogonalLoop=1;jettySize=auto;html=1;entryX=0;entryY=0.5;entryDx=0;entryDy=0;exitX=0;exitY=0.5;exitDx=0;exitDy=0;" edge="1" parent="1" source="jlyRW384jzeri63i-alh-5" target="jlyRW384jzeri63i-alh-39">
          <mxGeometry relative="1" as="geometry" />
        </mxCell>
        <mxCell id="jlyRW384jzeri63i-alh-61" style="edgeStyle=orthogonalEdgeStyle;rounded=0;orthogonalLoop=1;jettySize=auto;html=1;entryX=0;entryY=0.5;entryDx=0;entryDy=0;exitX=0;exitY=0.5;exitDx=0;exitDy=0;" edge="1" parent="1" source="jlyRW384jzeri63i-alh-5" target="jlyRW384jzeri63i-alh-40">
          <mxGeometry relative="1" as="geometry" />
        </mxCell>
        <mxCell id="jlyRW384jzeri63i-alh-62" style="edgeStyle=orthogonalEdgeStyle;rounded=0;orthogonalLoop=1;jettySize=auto;html=1;entryX=0;entryY=0.5;entryDx=0;entryDy=0;exitX=0;exitY=0.5;exitDx=0;exitDy=0;" edge="1" parent="1" source="jlyRW384jzeri63i-alh-5" target="jlyRW384jzeri63i-alh-42">
          <mxGeometry relative="1" as="geometry" />
        </mxCell>
        <mxCell id="jlyRW384jzeri63i-alh-5" value="Тестування" style="rounded=0;whiteSpace=wrap;html=1;" vertex="1" parent="1">
          <mxGeometry x="510" y="150" width="120" height="60" as="geometry" />
        </mxCell>
        <mxCell id="jlyRW384jzeri63i-alh-64" style="edgeStyle=orthogonalEdgeStyle;rounded=0;orthogonalLoop=1;jettySize=auto;html=1;entryX=0;entryY=0.5;entryDx=0;entryDy=0;exitX=0;exitY=0.5;exitDx=0;exitDy=0;" edge="1" parent="1" source="jlyRW384jzeri63i-alh-11" target="jlyRW384jzeri63i-alh-43">
          <mxGeometry relative="1" as="geometry" />
        </mxCell>
        <mxCell id="jlyRW384jzeri63i-alh-65" style="edgeStyle=orthogonalEdgeStyle;rounded=0;orthogonalLoop=1;jettySize=auto;html=1;entryX=0;entryY=0.5;entryDx=0;entryDy=0;exitX=0;exitY=0.5;exitDx=0;exitDy=0;" edge="1" parent="1" source="jlyRW384jzeri63i-alh-11" target="jlyRW384jzeri63i-alh-44">
          <mxGeometry relative="1" as="geometry" />
        </mxCell>
        <mxCell id="jlyRW384jzeri63i-alh-11" value="Супровід&lt;br&gt;&amp;nbsp;проекту" style="rounded=0;whiteSpace=wrap;html=1;" vertex="1" parent="1">
          <mxGeometry x="690" y="150" width="120" height="60" as="geometry" />
        </mxCell>
        <mxCell id="jlyRW384jzeri63i-alh-13" value="Визначення бізнес вимог" style="rounded=0;whiteSpace=wrap;html=1;" vertex="1" parent="1">
          <mxGeometry x="-10" y="230" width="120" height="60" as="geometry" />
        </mxCell>
        <mxCell id="jlyRW384jzeri63i-alh-14" value="Аналіз та специфікація технічних вимог" style="rounded=0;whiteSpace=wrap;html=1;" vertex="1" parent="1">
          <mxGeometry x="-10" y="300" width="120" height="60" as="geometry" />
        </mxCell>
        <mxCell id="jlyRW384jzeri63i-alh-15" value="Визначення функціональних вимог" style="rounded=0;whiteSpace=wrap;html=1;" vertex="1" parent="1">
          <mxGeometry x="-10" y="370" width="120" height="60" as="geometry" />
        </mxCell>
        <mxCell id="jlyRW384jzeri63i-alh-17" value="Архітектурне проектування" style="rounded=0;whiteSpace=wrap;html=1;" vertex="1" parent="1">
          <mxGeometry x="170" y="230" width="120" height="60" as="geometry" />
        </mxCell>
        <mxCell id="jlyRW384jzeri63i-alh-18" value="Проектування інтерфейсу" style="rounded=0;whiteSpace=wrap;html=1;" vertex="1" parent="1">
          <mxGeometry x="170" y="300" width="120" height="60" as="geometry" />
        </mxCell>
        <mxCell id="jlyRW384jzeri63i-alh-19" value="Визначення алгоритмів та структур даних" style="rounded=0;whiteSpace=wrap;html=1;" vertex="1" parent="1">
          <mxGeometry x="170" y="370" width="120" height="60" as="geometry" />
        </mxCell>
        <mxCell id="jlyRW384jzeri63i-alh-35" value="Написання коду" style="rounded=0;whiteSpace=wrap;html=1;" vertex="1" parent="1">
          <mxGeometry x="350" y="230" width="120" height="60" as="geometry" />
        </mxCell>
        <mxCell id="jlyRW384jzeri63i-alh-36" value="Перевірка відповідності стандартам" style="rounded=0;whiteSpace=wrap;html=1;" vertex="1" parent="1">
          <mxGeometry x="350" y="370" width="120" height="60" as="geometry" />
        </mxCell>
        <mxCell id="jlyRW384jzeri63i-alh-37" value="Розробка тестових сценаріїв" style="rounded=0;whiteSpace=wrap;html=1;" vertex="1" parent="1">
          <mxGeometry x="350" y="440" width="120" height="60" as="geometry" />
        </mxCell>
        <mxCell id="jlyRW384jzeri63i-alh-39" value="Виконання тестів" style="rounded=0;whiteSpace=wrap;html=1;" vertex="1" parent="1">
          <mxGeometry x="530" y="230" width="120" height="60" as="geometry" />
        </mxCell>
        <mxCell id="jlyRW384jzeri63i-alh-40" value="Автоматичне тестування" style="rounded=0;whiteSpace=wrap;html=1;" vertex="1" parent="1">
          <mxGeometry x="530" y="300" width="120" height="60" as="geometry" />
        </mxCell>
        <mxCell id="jlyRW384jzeri63i-alh-42" value="Відлагодження та виправлення помилок" style="rounded=0;whiteSpace=wrap;html=1;" vertex="1" parent="1">
          <mxGeometry x="530" y="370" width="120" height="60" as="geometry" />
        </mxCell>
        <mxCell id="jlyRW384jzeri63i-alh-43" value="Створення документації" style="rounded=0;whiteSpace=wrap;html=1;" vertex="1" parent="1">
          <mxGeometry x="707" y="230" width="120" height="60" as="geometry" />
        </mxCell>
        <mxCell id="jlyRW384jzeri63i-alh-44" value="Передача програмного забезпечення клієнту" style="rounded=0;whiteSpace=wrap;html=1;" vertex="1" parent="1">
          <mxGeometry x="707" y="300" width="120" height="60" as="geometry" />
        </mxCell>
        <mxCell id="jlyRW384jzeri63i-alh-47" value="Дебагінг коду" style="rounded=0;whiteSpace=wrap;html=1;" vertex="1" parent="1">
          <mxGeometry x="350" y="300" width="120" height="60" as="geometry" />
        </mxCell>
      </root>
    </mxGraphModel>
  </diagram>
</mxfile>
